# xmcd
#
# Track frame offsets: 
#        150
#        21015
#        34360
#        55212
#
# Disc length: 912 seconds
#
# Revision: 0
# Processed by: cddbd v1.5.2PL0 Copyright (c) Steve Scherf et al.
# Submitted via: ExactAudioCopyFreeDBPlugin 1.0
#
DISCID=2d038e04
DTITLE=木村カエラ - Snowdome
DYEAR=2007
DGENRE=
TTITLE0=Snowdome
TTITLE1=Ground Control
TTITLE2=Snowdome (Inst.)
TTITLE3=Ground Control (Inst.)
EXTD=
EXTT0=
EXTT1=
EXTT2=
EXTT3=
PLAYORDER=
